<svg xmlns="http://www.w3.org/2000/svg" xmlns:xlink="http://www.w3.org/1999/xlink" width="1080" zoomAndPan="magnify" viewBox="0 0 810 809.999993" height="1080" preserveAspectRatio="xMidYMid meet" version="1.0"><defs><clipPath id="885e789487"><path d="M 284 205.175781 L 738.804688 205.175781 L 738.804688 492 L 284 492 Z M 284 205.175781 " clip-rule="nonzero"/></clipPath><clipPath id="502ace965e"><path d="M 349 503 L 451 503 L 451 604.925781 L 349 604.925781 Z M 349 503 " clip-rule="nonzero"/></clipPath><clipPath id="dbf9bb2cda"><path d="M 492 503 L 594 503 L 594 604.925781 L 492 604.925781 Z M 492 503 " clip-rule="nonzero"/></clipPath><clipPath id="11dcc3c3fb"><path d="M 71.304688 378 L 334 378 L 334 409 L 71.304688 409 Z M 71.304688 378 " clip-rule="nonzero"/></clipPath></defs><g clip-path="url(#885e789487)"><path fill="#545454" d="M 738.6875 283.304688 L 692.542969 474.960938 C 692.539062 475.875 692.449219 476.777344 692.269531 477.671875 C 692.089844 478.5625 691.824219 479.433594 691.472656 480.273438 C 691.121094 481.113281 690.695312 481.914062 690.1875 482.671875 C 689.679688 483.429688 689.105469 484.132812 688.460938 484.777344 C 687.8125 485.421875 687.113281 485.996094 686.355469 486.503906 C 685.597656 487.011719 684.796875 487.4375 683.957031 487.789062 C 683.113281 488.140625 682.246094 488.40625 681.355469 488.585938 C 680.460938 488.765625 679.558594 488.855469 678.644531 488.859375 L 367.722656 491.113281 C 366.8125 491.109375 365.910156 491.019531 365.015625 490.839844 C 364.121094 490.660156 363.253906 490.394531 362.414062 490.042969 C 361.570312 489.691406 360.773438 489.265625 360.015625 488.757812 C 359.257812 488.25 358.554688 487.671875 357.910156 487.027344 C 357.265625 486.382812 356.691406 485.683594 356.183594 484.925781 C 355.675781 484.167969 355.246094 483.367188 354.898438 482.527344 C 354.546875 481.683594 354.28125 480.816406 354.101562 479.921875 C 353.921875 479.03125 353.828125 478.128906 353.828125 477.214844 L 353.828125 283.28125 C 353.824219 282.902344 353.839844 282.523438 353.875 282.144531 L 349.671875 244.621094 L 303.710938 244.621094 C 303.082031 244.597656 302.457031 244.542969 301.832031 244.457031 C 301.210938 244.371094 300.59375 244.257812 299.980469 244.113281 C 299.367188 243.96875 298.765625 243.796875 298.167969 243.59375 C 297.574219 243.390625 296.988281 243.160156 296.417969 242.902344 C 295.84375 242.644531 295.28125 242.359375 294.738281 242.050781 C 294.191406 241.738281 293.660156 241.402344 293.148438 241.039062 C 292.632812 240.675781 292.136719 240.289062 291.660156 239.878906 C 291.183594 239.472656 290.726562 239.039062 290.292969 238.585938 C 289.855469 238.132812 289.441406 237.660156 289.050781 237.167969 C 288.664062 236.671875 288.296875 236.164062 287.953125 235.636719 C 287.613281 235.105469 287.296875 234.5625 287.007812 234.007812 C 286.71875 233.449219 286.457031 232.878906 286.222656 232.292969 C 285.988281 231.710938 285.78125 231.117188 285.601562 230.515625 C 285.425781 229.910156 285.277344 229.300781 285.15625 228.683594 C 285.035156 228.066406 284.949219 227.445312 284.886719 226.820312 C 284.828125 226.195312 284.796875 225.566406 284.796875 224.9375 C 284.796875 224.308594 284.828125 223.679688 284.886719 223.054688 C 284.949219 222.429688 285.035156 221.808594 285.15625 221.191406 C 285.277344 220.574219 285.425781 219.964844 285.601562 219.359375 C 285.78125 218.757812 285.988281 218.164062 286.222656 217.582031 C 286.457031 216.996094 286.71875 216.425781 287.007812 215.867188 C 287.296875 215.308594 287.613281 214.765625 287.953125 214.238281 C 288.296875 213.710938 288.664062 213.199219 289.050781 212.707031 C 289.441406 212.214844 289.855469 211.742188 290.292969 211.289062 C 290.726562 210.835938 291.183594 210.402344 291.660156 209.992188 C 292.136719 209.585938 292.632812 209.199219 293.148438 208.835938 C 293.660156 208.472656 294.191406 208.136719 294.738281 207.824219 C 295.28125 207.515625 295.84375 207.230469 296.417969 206.972656 C 296.988281 206.714844 297.574219 206.484375 298.167969 206.28125 C 298.765625 206.078125 299.367188 205.90625 299.980469 205.761719 C 300.59375 205.617188 301.210938 205.503906 301.832031 205.417969 C 302.457031 205.332031 303.082031 205.277344 303.710938 205.253906 L 384.839844 205.253906 C 384.847656 205.324219 384.847656 205.394531 384.839844 205.464844 L 389.230469 244.644531 L 392.007812 269.402344 L 724.789062 269.402344 C 725.703125 269.402344 726.605469 269.496094 727.5 269.675781 C 728.390625 269.855469 729.261719 270.121094 730.101562 270.472656 C 730.945312 270.824219 731.742188 271.25 732.5 271.757812 C 733.257812 272.265625 733.960938 272.84375 734.605469 273.488281 C 735.25 274.132812 735.824219 274.835938 736.332031 275.59375 C 736.839844 276.351562 737.269531 277.152344 737.617188 277.992188 C 737.96875 278.835938 738.234375 279.703125 738.414062 280.597656 C 738.59375 281.492188 738.683594 282.394531 738.6875 283.304688 Z M 738.6875 283.304688 " fill-opacity="1" fill-rule="nonzero"/></g><g clip-path="url(#502ace965e)"><path fill="#000000" d="M 450.574219 554.136719 C 450.574219 555.796875 450.492188 557.449219 450.328125 559.101562 C 450.167969 560.753906 449.925781 562.390625 449.601562 564.015625 C 449.277344 565.644531 448.875 567.25 448.394531 568.839844 C 447.910156 570.425781 447.351562 571.984375 446.71875 573.519531 C 446.082031 575.050781 445.375 576.546875 444.59375 578.011719 C 443.8125 579.472656 442.960938 580.894531 442.039062 582.273438 C 441.117188 583.652344 440.128906 584.984375 439.078125 586.265625 C 438.027344 587.546875 436.914062 588.773438 435.742188 589.949219 C 434.566406 591.121094 433.339844 592.234375 432.058594 593.285156 C 430.777344 594.335938 429.445312 595.324219 428.066406 596.246094 C 426.6875 597.167969 425.265625 598.019531 423.804688 598.800781 C 422.339844 599.582031 420.84375 600.289062 419.3125 600.925781 C 417.777344 601.558594 416.21875 602.117188 414.632812 602.601562 C 413.042969 603.082031 411.4375 603.484375 409.8125 603.808594 C 408.183594 604.128906 406.546875 604.375 404.894531 604.535156 C 403.246094 604.699219 401.589844 604.78125 399.929688 604.78125 C 398.273438 604.78125 396.617188 604.699219 394.96875 604.535156 C 393.316406 604.375 391.679688 604.128906 390.050781 603.808594 C 388.425781 603.484375 386.816406 603.082031 385.230469 602.601562 C 383.644531 602.117188 382.082031 601.558594 380.550781 600.925781 C 379.019531 600.289062 377.519531 599.582031 376.058594 598.800781 C 374.59375 598.019531 373.175781 597.167969 371.796875 596.246094 C 370.417969 595.324219 369.085938 594.335938 367.804688 593.285156 C 366.523438 592.234375 365.292969 591.121094 364.121094 589.949219 C 362.949219 588.773438 361.835938 587.546875 360.785156 586.265625 C 359.730469 584.984375 358.746094 583.652344 357.824219 582.273438 C 356.902344 580.894531 356.050781 579.472656 355.269531 578.011719 C 354.488281 576.546875 353.777344 575.050781 353.144531 573.519531 C 352.507812 571.984375 351.949219 570.425781 351.46875 568.839844 C 350.988281 567.25 350.585938 565.644531 350.261719 564.015625 C 349.9375 562.390625 349.695312 560.753906 349.53125 559.101562 C 349.371094 557.449219 349.289062 555.796875 349.289062 554.136719 C 349.289062 552.480469 349.371094 550.824219 349.53125 549.171875 C 349.695312 547.523438 349.9375 545.882812 350.261719 544.257812 C 350.585938 542.632812 350.988281 541.023438 351.46875 539.4375 C 351.949219 537.851562 352.507812 536.289062 353.144531 534.757812 C 353.777344 533.226562 354.488281 531.726562 355.269531 530.265625 C 356.050781 528.800781 356.902344 527.382812 357.824219 526.003906 C 358.746094 524.621094 359.730469 523.292969 360.785156 522.011719 C 361.835938 520.726562 362.949219 519.5 364.121094 518.328125 C 365.292969 517.15625 366.523438 516.042969 367.804688 514.992188 C 369.085938 513.9375 370.417969 512.953125 371.796875 512.03125 C 373.175781 511.109375 374.59375 510.257812 376.058594 509.476562 C 377.519531 508.691406 379.019531 507.984375 380.550781 507.351562 C 382.082031 506.714844 383.644531 506.15625 385.230469 505.675781 C 386.816406 505.195312 388.425781 504.792969 390.050781 504.46875 C 391.679688 504.144531 393.316406 503.902344 394.96875 503.738281 C 396.617188 503.578125 398.273438 503.496094 399.929688 503.496094 C 401.589844 503.496094 403.246094 503.578125 404.894531 503.738281 C 406.546875 503.902344 408.183594 504.144531 409.8125 504.46875 C 411.4375 504.792969 413.042969 505.195312 414.632812 505.675781 C 416.21875 506.15625 417.777344 506.714844 419.3125 507.351562 C 420.84375 507.984375 422.339844 508.691406 423.804688 509.476562 C 425.265625 510.257812 426.6875 511.109375 428.066406 512.03125 C 429.445312 512.953125 430.777344 513.9375 432.058594 514.992188 C 433.339844 516.042969 434.566406 517.15625 435.742188 518.328125 C 436.914062 519.5 438.027344 520.726562 439.078125 522.011719 C 440.128906 523.292969 441.117188 524.621094 442.039062 526.003906 C 442.960938 527.382812 443.8125 528.800781 444.59375 530.265625 C 445.375 531.726562 446.082031 533.226562 446.71875 534.757812 C 447.351562 536.289062 447.910156 537.851562 448.394531 539.4375 C 448.875 541.023438 449.277344 542.632812 449.601562 544.257812 C 449.925781 545.882812 450.167969 547.523438 450.328125 549.175781 C 450.492188 550.824219 450.574219 552.480469 450.574219 554.136719 Z M 450.574219 554.136719 " fill-opacity="1" fill-rule="nonzero"/></g><g clip-path="url(#dbf9bb2cda)"><path fill="#000000" d="M 593.503906 554.136719 C 593.503906 555.796875 593.421875 557.449219 593.257812 559.101562 C 593.097656 560.753906 592.855469 562.390625 592.53125 564.015625 C 592.207031 565.644531 591.804688 567.25 591.324219 568.839844 C 590.839844 570.425781 590.285156 571.984375 589.648438 573.519531 C 589.015625 575.050781 588.304688 576.546875 587.523438 578.011719 C 586.742188 579.472656 585.890625 580.894531 584.96875 582.273438 C 584.046875 583.652344 583.058594 584.984375 582.007812 586.265625 C 580.957031 587.546875 579.84375 588.773438 578.671875 589.949219 C 577.496094 591.121094 576.269531 592.234375 574.988281 593.285156 C 573.707031 594.335938 572.375 595.324219 570.996094 596.246094 C 569.617188 597.167969 568.195312 598.019531 566.734375 598.800781 C 565.269531 599.582031 563.773438 600.289062 562.242188 600.925781 C 560.707031 601.558594 559.148438 602.117188 557.5625 602.601562 C 555.972656 603.082031 554.367188 603.484375 552.742188 603.808594 C 551.113281 604.128906 549.476562 604.375 547.824219 604.535156 C 546.175781 604.699219 544.519531 604.78125 542.859375 604.78125 C 541.203125 604.78125 539.546875 604.699219 537.898438 604.535156 C 536.246094 604.375 534.609375 604.128906 532.980469 603.808594 C 531.355469 603.484375 529.746094 603.082031 528.160156 602.601562 C 526.574219 602.117188 525.011719 601.558594 523.480469 600.925781 C 521.949219 600.289062 520.449219 599.582031 518.988281 598.800781 C 517.523438 598.019531 516.105469 597.167969 514.726562 596.246094 C 513.347656 595.324219 512.015625 594.335938 510.734375 593.285156 C 509.453125 592.234375 508.222656 591.121094 507.050781 589.949219 C 505.878906 588.773438 504.765625 587.546875 503.714844 586.265625 C 502.660156 584.984375 501.675781 583.652344 500.753906 582.273438 C 499.832031 580.894531 498.980469 579.472656 498.199219 578.011719 C 497.417969 576.546875 496.707031 575.050781 496.074219 573.519531 C 495.4375 571.984375 494.878906 570.425781 494.398438 568.839844 C 493.917969 567.25 493.515625 565.644531 493.191406 564.015625 C 492.867188 562.390625 492.625 560.753906 492.460938 559.101562 C 492.300781 557.449219 492.21875 555.796875 492.21875 554.136719 C 492.21875 552.480469 492.300781 550.824219 492.460938 549.171875 C 492.625 547.523438 492.867188 545.882812 493.191406 544.257812 C 493.515625 542.632812 493.917969 541.023438 494.398438 539.4375 C 494.878906 537.851562 495.4375 536.289062 496.074219 534.757812 C 496.707031 533.226562 497.417969 531.726562 498.199219 530.265625 C 498.980469 528.800781 499.832031 527.382812 500.753906 526.003906 C 501.675781 524.621094 502.660156 523.292969 503.714844 522.011719 C 504.765625 520.726562 505.878906 519.5 507.050781 518.328125 C 508.222656 517.15625 509.453125 516.042969 510.734375 514.992188 C 512.015625 513.9375 513.347656 512.953125 514.726562 512.03125 C 516.105469 511.109375 517.527344 510.257812 518.988281 509.476562 C 520.449219 508.691406 521.949219 507.984375 523.480469 507.351562 C 525.011719 506.714844 526.574219 506.15625 528.160156 505.675781 C 529.746094 505.195312 531.355469 504.792969 532.980469 504.46875 C 534.609375 504.144531 536.246094 503.902344 537.898438 503.738281 C 539.546875 503.578125 541.203125 503.496094 542.859375 503.496094 C 544.519531 503.496094 546.175781 503.578125 547.824219 503.738281 C 549.476562 503.902344 551.113281 504.144531 552.742188 504.46875 C 554.367188 504.792969 555.972656 505.195312 557.5625 505.675781 C 559.148438 506.15625 560.707031 506.714844 562.242188 507.351562 C 563.773438 507.984375 565.269531 508.691406 566.734375 509.476562 C 568.195312 510.257812 569.617188 511.109375 570.996094 512.03125 C 572.375 512.953125 573.707031 513.9375 574.988281 514.992188 C 576.269531 516.042969 577.496094 517.15625 578.671875 518.328125 C 579.84375 519.5 580.957031 520.726562 582.007812 522.011719 C 583.058594 523.292969 584.046875 524.621094 584.96875 526.003906 C 585.890625 527.382812 586.742188 528.800781 587.523438 530.265625 C 588.304688 531.726562 589.015625 533.226562 589.648438 534.757812 C 590.285156 536.289062 590.839844 537.851562 591.324219 539.4375 C 591.804688 541.023438 592.207031 542.632812 592.53125 544.257812 C 592.855469 545.882812 593.097656 547.523438 593.257812 549.175781 C 593.421875 550.824219 593.503906 552.480469 593.503906 554.136719 Z M 593.503906 554.136719 " fill-opacity="1" fill-rule="nonzero"/></g><path fill="#545454" d="M 204.105469 286.28125 L 320.027344 286.28125 C 320.914062 286.28125 321.789062 286.367188 322.660156 286.542969 C 323.53125 286.714844 324.375 286.96875 325.195312 287.308594 C 326.011719 287.648438 326.792969 288.066406 327.527344 288.558594 C 328.265625 289.050781 328.949219 289.609375 329.574219 290.238281 C 330.203125 290.863281 330.761719 291.546875 331.253906 292.285156 C 331.746094 293.019531 332.164062 293.800781 332.503906 294.617188 C 332.839844 295.4375 333.097656 296.28125 333.269531 297.152344 C 333.445312 298.019531 333.53125 298.898438 333.53125 299.785156 L 333.53125 303.164062 C 333.53125 304.050781 333.445312 304.925781 333.269531 305.796875 C 333.097656 306.667969 332.839844 307.511719 332.503906 308.332031 C 332.164062 309.148438 331.746094 309.929688 331.253906 310.664062 C 330.761719 311.402344 330.203125 312.085938 329.574219 312.710938 C 328.949219 313.339844 328.265625 313.898438 327.527344 314.390625 C 326.792969 314.882812 326.011719 315.300781 325.195312 315.640625 C 324.375 315.976562 323.53125 316.234375 322.660156 316.40625 C 321.789062 316.582031 320.914062 316.667969 320.027344 316.667969 L 204.105469 316.667969 C 203.21875 316.667969 202.339844 316.582031 201.46875 316.40625 C 200.601562 316.234375 199.757812 315.976562 198.9375 315.640625 C 198.117188 315.300781 197.339844 314.882812 196.601562 314.390625 C 195.863281 313.898438 195.183594 313.339844 194.554688 312.710938 C 193.929688 312.085938 193.371094 311.402344 192.875 310.664062 C 192.382812 309.929688 191.96875 309.148438 191.628906 308.332031 C 191.289062 307.511719 191.03125 306.667969 190.859375 305.796875 C 190.6875 304.925781 190.601562 304.050781 190.601562 303.164062 L 190.601562 299.785156 C 190.601562 298.898438 190.6875 298.019531 190.859375 297.152344 C 191.03125 296.28125 191.289062 295.4375 191.628906 294.617188 C 191.96875 293.800781 192.382812 293.019531 192.875 292.285156 C 193.371094 291.546875 193.929688 290.863281 194.554688 290.238281 C 195.183594 289.609375 195.863281 289.050781 196.601562 288.558594 C 197.339844 288.066406 198.117188 287.648438 198.9375 287.308594 C 199.757812 286.96875 200.601562 286.714844 201.46875 286.542969 C 202.339844 286.367188 203.21875 286.28125 204.105469 286.28125 Z M 204.105469 286.28125 " fill-opacity="1" fill-rule="nonzero"/><path fill="#545454" d="M 204.105469 475.355469 L 320.027344 475.355469 C 320.914062 475.355469 321.789062 475.441406 322.660156 475.613281 C 323.53125 475.789062 324.375 476.042969 325.195312 476.382812 C 326.011719 476.722656 326.792969 477.136719 327.527344 477.632812 C 328.265625 478.125 328.949219 478.683594 329.574219 479.308594 C 330.203125 479.9375 330.761719 480.621094 331.253906 481.355469 C 331.746094 482.09375 332.164062 482.871094 332.503906 483.691406 C 332.839844 484.511719 333.097656 485.355469 333.269531 486.226562 C 333.445312 487.09375 333.53125 487.972656 333.53125 488.859375 L 333.53125 492.234375 C 333.53125 493.121094 333.445312 494 333.269531 494.871094 C 333.097656 495.738281 332.839844 496.585938 332.503906 497.402344 C 332.164062 498.222656 331.746094 499 331.253906 499.738281 C 330.761719 500.476562 330.203125 501.15625 329.574219 501.785156 C 328.949219 502.414062 328.265625 502.972656 327.527344 503.464844 C 326.792969 503.957031 326.011719 504.375 325.195312 504.710938 C 324.375 505.050781 323.53125 505.308594 322.660156 505.480469 C 321.789062 505.652344 320.914062 505.742188 320.027344 505.742188 L 204.105469 505.742188 C 203.21875 505.742188 202.339844 505.652344 201.46875 505.480469 C 200.601562 505.308594 199.757812 505.050781 198.9375 504.710938 C 198.117188 504.375 197.339844 503.957031 196.601562 503.464844 C 195.863281 502.972656 195.183594 502.414062 194.554688 501.785156 C 193.929688 501.15625 193.371094 500.476562 192.875 499.738281 C 192.382812 499 191.96875 498.222656 191.628906 497.402344 C 191.289062 496.585938 191.03125 495.738281 190.859375 494.871094 C 190.6875 494 190.601562 493.121094 190.601562 492.234375 L 190.601562 488.859375 C 190.601562 487.972656 190.6875 487.09375 190.859375 486.226562 C 191.03125 485.355469 191.289062 484.511719 191.628906 483.691406 C 191.96875 482.871094 192.382812 482.09375 192.875 481.355469 C 193.371094 480.621094 193.929688 479.9375 194.554688 479.308594 C 195.183594 478.683594 195.863281 478.125 196.601562 477.632812 C 197.339844 477.136719 198.117188 476.722656 198.9375 476.382812 C 199.757812 476.042969 200.601562 475.789062 201.46875 475.613281 C 202.339844 475.441406 203.21875 475.355469 204.105469 475.355469 Z M 204.105469 475.355469 " fill-opacity="1" fill-rule="nonzero"/><g clip-path="url(#11dcc3c3fb)"><path fill="#545454" d="M 86.496094 378.570312 L 318.335938 378.570312 C 319.335938 378.570312 320.324219 378.667969 321.300781 378.859375 C 322.28125 379.054688 323.230469 379.34375 324.152344 379.726562 C 325.074219 380.105469 325.949219 380.574219 326.777344 381.128906 C 327.609375 381.683594 328.375 382.3125 329.082031 383.019531 C 329.785156 383.722656 330.414062 384.492188 330.96875 385.320312 C 331.523438 386.152344 331.992188 387.027344 332.375 387.949219 C 332.753906 388.871094 333.042969 389.820312 333.238281 390.796875 C 333.433594 391.777344 333.53125 392.765625 333.53125 393.761719 C 333.53125 394.757812 333.433594 395.746094 333.238281 396.726562 C 333.042969 397.703125 332.753906 398.652344 332.375 399.574219 C 331.992188 400.496094 331.523438 401.371094 330.96875 402.203125 C 330.414062 403.03125 329.785156 403.800781 329.082031 404.503906 C 328.375 405.210938 327.609375 405.839844 326.777344 406.394531 C 325.949219 406.949219 325.074219 407.417969 324.152344 407.796875 C 323.230469 408.179688 322.28125 408.46875 321.300781 408.664062 C 320.324219 408.855469 319.335938 408.953125 318.335938 408.953125 L 86.496094 408.953125 C 85.5 408.953125 84.511719 408.855469 83.53125 408.664062 C 82.554688 408.46875 81.605469 408.179688 80.683594 407.796875 C 79.761719 407.417969 78.886719 406.949219 78.054688 406.394531 C 77.226562 405.839844 76.460938 405.210938 75.753906 404.503906 C 75.046875 403.800781 74.417969 403.03125 73.863281 402.203125 C 73.308594 401.371094 72.84375 400.496094 72.460938 399.574219 C 72.078125 398.652344 71.789062 397.703125 71.597656 396.726562 C 71.402344 395.746094 71.304688 394.757812 71.304688 393.761719 C 71.304688 392.765625 71.402344 391.777344 71.597656 390.796875 C 71.789062 389.820312 72.078125 388.871094 72.460938 387.949219 C 72.84375 387.027344 73.308594 386.152344 73.863281 385.320312 C 74.417969 384.492188 75.046875 383.722656 75.753906 383.019531 C 76.460938 382.3125 77.226562 381.683594 78.054688 381.128906 C 78.886719 380.574219 79.761719 380.105469 80.683594 379.726562 C 81.605469 379.34375 82.554688 379.054688 83.53125 378.859375 C 84.511719 378.667969 85.5 378.570312 86.496094 378.570312 Z M 86.496094 378.570312 " fill-opacity="1" fill-rule="nonzero"/></g></svg>